<svg width="31" height="30" viewBox="0 0 31 30" fill="none" xmlns="http://www.w3.org/2000/svg">
<g id="icon_phon">
<path id="Vector" d="M19.8834 26C15.4968 26 11.5521 24.1881 8.67674 21.3134C5.80143 18.4387 4.00195 14.5076 4.00195 10.122C4.00195 9.2 4.4118 8.37409 5.05218 7.81067L7.55607 5.42896C7.83144 5.16006 8.20286 5 8.6127 5C9.14422 5 9.6117 5.2689 9.88706 5.67866L12.4294 9.23201C12.6087 9.48171 12.7111 9.78902 12.7111 10.122C12.7111 10.5765 12.5062 10.9927 12.1924 11.2744L10.156 13.0671C9.87426 13.3488 9.63732 13.7457 9.63732 14.2195C9.63091 15.3463 10.4698 16.8957 11.789 18.2146C13.1082 19.5335 14.6579 20.3723 15.785 20.3659C16.2525 20.3659 16.6559 20.129 16.9377 19.8473L18.7371 17.8177C19.0189 17.4976 19.4288 17.2991 19.8898 17.2991C20.2228 17.2991 20.5238 17.4015 20.78 17.5808L24.3341 20.1226C24.7439 20.3979 25.0129 20.8652 25.0129 21.3966C25.0129 21.8064 24.8528 22.1777 24.5902 22.453L22.208 24.9564C21.6317 25.5902 20.8056 26 19.8834 26Z" stroke="#393246" stroke-width="1.5" stroke-miterlimit="10"/>
</g>
</svg>
